<svg id="_ÎÓÈ_1" data-name="—ÎÓÈ_1" xmlns="http://www.w3.org/2000/svg" viewBox="0 0 309.02 469.22"><defs><style>.cls-1{fill:#c3ae64;}.cls-2{fill:#fff;}</style></defs><title>PIN</title><path class="cls-1" d="M318.63,65.39a154.51,154.51,0,0,0-154.51,154.5c0,85.34,154.51,314.71,154.51,314.71s154.5-229.38,154.5-314.71A154.5,154.5,0,0,0,318.63,65.39Zm0,292.69A137.37,137.37,0,1,1,456,220.7,137.38,137.38,0,0,1,318.62,358.08Z" transform="translate(-164.12 -65.39)"/><circle class="cls-1" cx="154.51" cy="155.31" r="137.37"/><path class="cls-2" d="M326.63,143c-2.7,1-.9-2.63-0.9-2.63,8.54-13.29,8.47-17,8.47-17-2.7.06-14.31,9.12-14.31,9.12a10.59,10.59,0,0,1-2.89,1l0.32-1.54c0.32-2.5-.95-2.82-0.95-2.82-1.91,2.05-9.26,17.07-9.26,17.07-7.51,14.76-4.81,32.61-4.81,32.61,1,9.82,6.23,21.89,6.23,21.89,5.26,11.55,2.63,18.49,2.63,18.49-2,10.08-13.93,9.56-13.93,9.56-11.1-.06-17.91-14.51-17.91-14.51-9.63-23.43-6.68-27.6-6.68-27.6,5.3-4,3.85-8.76,3.85-8.76a20,20,0,0,1-2.12-12.61c4.62,1.54,4.91,10.11,4.91,10.11-0.19,2,3.37,5.68,3.37,5.68,4-6.93-2.12-22.92-2.12-22.92,2.79-.39,6.74,3.85,6.74,3.85,0.77-6.55-9.82-17.52-9.82-17.52,6.26-1.06,9.92,6.84,9.92,6.84,2.79-10.3-7.13-16.75-7.13-16.75a27.81,27.81,0,0,1-6.93-5.39c2.41-11.65-4.62-13.38-4.62-13.38v1.93c-0.19,6.07-11,4.33-11,4.33-5.49-.19-7.41,1.73-7.41,1.73a13.38,13.38,0,0,1-3.76,2.79c-3.85.1-12.23,2.89-12.23,2.89-4,1.25-10.78-.48-10.78-0.48l-1.44,9.72c-0.77,6.74,2.21,10.3,2.21,10.3,0.39-1.25,4.11-5.94,4.11-5.94A18.91,18.91,0,0,1,243,145.29l0.19,3.4c-0.06,8.34-9.12,9.95-9.12,9.95-6.42,1.73-9.5-1.8-9.5-1.8h-0.83l-0.06.71c0.83,1.16,3,10.08,3,10.08a12.85,12.85,0,0,0,6.48-.71c1.48-1.28,6.87-3.85,6.87-3.85,1.22,4.3-1.67,8.6-1.67,8.6-4,8.15-17.33,5.71-17.33,5.71-17.46-1.22-18-14.89-18-14.89,1-7.83-1.09-11.49-1.09-11.49-4.62-7.7-10.59-6.8-10.59-6.8l3.92,10.27c-9.37-6-13.87-2.12-13.87-2.12,0.51,1.8,3.79,4.94,3.79,4.94,7.45,4.94,5.58,6.8,5.58,6.8-10.33-.58-10,4.24-10,4.24,0.58,1.16-.13,6.93-0.13,6.93a7.57,7.57,0,0,0,2.89-1.16,9.77,9.77,0,0,1,10.4-.77c6.48,5.91,1.35,7.06,1.35,7.06-6.68,1.54-6.55,4.49-6.55,4.49,3.53,1.6,13.42.83,13.42,0.83l0.19,2.82a3.56,3.56,0,0,1,.26,3.79c-6.29,3.85-5.39,7.83-5.39,7.83,5.71,0.77,12.13-3.92,12.13-3.92,1,1.16,4.81,1.6,4.81,1.6,4.3,0.32,4.11,1.28,4.11,1.28-5.07.19-7.83,4.94-7.83,4.94C208.59,207.62,202,216,202,216c-7.19,7-19.32-1.86-19.32-1.86-4.75-2.38-7.57-.83-7.57-0.83-3,1.6-1.54,6.68-1.54,6.68,8.09-1.6,10.66,1.93,10.66,1.93a7.14,7.14,0,0,0-7,4c-5.78,14.64,4.69,16.82,4.69,16.82-1.09-10.85,4.75-13.16,4.75-13.16a4.53,4.53,0,0,1,6.16,2.31c-4.75,10.59,3.08,19.58,3.08,19.58,3.34-6,5.07-19.9,5.07-19.9,6.1-.32,7.32,3.85,7.32,3.85,2.38,4.56-2.5,9.18-2.5,9.18,14.83-1.16,9.37-13.42,9.37-13.42-2.5-4.56-1.16-8.09-1.16-8.09,1.67-3.21,4.36-2,4.36-2-1,.39-0.32,1.93-0.32,1.93l3.34,4.17c10.33,1,12-4.56,12-4.56-11-2.18-6-9.12-6-9.12,1.93-.77,8.54-0.39,8.54-0.39,6.68,3,21.31,4.81,21.31,4.81-2.25.9-1.93,9.05-1.93,9.05-1.41,2.38-22.92,5.91-22.92,5.91-16.63,3.53-11.49,19.32-11.49,19.32,1.6,5.52-1.16,5.84-1.16,5.84l-14.51.58c2.18,10.14,16,8.54,16,8.54,2.5,1.86,1,7.7,1,7.7-3.92,13.16-12.2,9.76-12.2,9.76a17.93,17.93,0,0,0-2.63-6.8l-3.21-.71c-12.52-9.69-15.86,1.28-15.86,1.28,9.44,0.58,12.84,7.06,12.84,7.06-3.27-.26-10.53,5.52-10.53,5.52l0.26,11.3c3.27,0.51,5.07-2.89,5.07-2.89,4.94-8.09,7.77-5.39,7.77-5.39-8.73,16.69,3.47,21.76,3.47,21.76l0.32-8.41c0.9-6.48,3.66-6.61,3.66-6.61l1.28,2.25c3.15,5.91,7.45,1.28,7.45,1.28,2.31-3.72,3.27-2.76,3.27-2.76,0.51,0.39.19,4.24,0.19,4.24,2.5-.39,7.45-6.93,7.45-6.93,11-1.22,10.66-6.93,10.66-6.93-5.78.9-6.1-1-6.1-1,6-5.84,6-25.36,6-25.36l8.86,0.13a19.87,19.87,0,0,0,4.17-6.23l0.39-2.5-4.69-.06-7.7,3.4c-3-2.5-2.89-8.6-2.89-8.6l7.83-.26,7.06-4.3c4.11,0.19,7.57,6.42,7.57,6.42-0.9,4.17-.13,12.77-0.13,12.77,2.57,5.46,2.05,7.06,2.05,7.06-8.73,2.12-9,9.18-9,9.18,4.56,1.22,14.51-3.66,14.51-3.66,7.64-2.5,8.15,3,8.15,3,0,18.87-7.77,17.84-7.77,17.84-1.86-5-11.49-5.07-11.49-5.07-8.22-.13-9.44,5.33-9.44,5.33,1,3.4,11.17,5.39,11.17,5.39-8.41,10.4-.39,17.33-0.39,17.33,3.72-.58,5.07-7.64,5.07-7.64,1.8-8.41,5-6,5-6-1.73,1.6-.9,10.27-0.9,10.27-0.06,3.59,3.66,5.91,3.66,5.91,3.15,1.41,4-2.63,4-2.63,0-1.35-.64-10.4-0.64-10.4-0.06-3.27,1.54-2.05,1.54-2.05l0.63,3.72a1.9,1.9,0,0,0,2.58-.51c0.58-3.92,2.31-3.79,2.31-3.79l6,0.32c6-1.22.39-4.36,0.39-4.36-4-1.67-3.21-2.18-3.21-2.18,3.92-.83,4.49-6.93,4.49-6.93,1.73-6.93,3.72-10.08,3.72-10.08,2.89-3.21,4.62-.26,4.62-0.26,2.25,6.68,4.36,6.16,4.36,6.16,1.22-.19,2.63-5.65,2.63-5.65,2.63-13.29-.9-14.44-0.9-14.44-1.41-.9-3.66.77-3.66,0.77-3.08,2.05-4.24,1.22-4.24,1.22,1.6-2.25-1-4.81-1-4.81a23.76,23.76,0,0,1-6.23-7.64c8.34,0.19,9.95-9.05,9.95-9.05-8.09-2.63-12.45,4.17-12.45,4.17-2.7,3.4-4.43,2.5-4.43,2.5,0.83-.45,1.48-3.92,1.48-3.92-0.26-9.31,3.79-12.71,3.79-12.71,7.45-7.51,17.65-5.71,17.65-5.71,10.4-.51,10.91-15.28,10.91-15.28,1-11-5-31.32-5-31.32-6.29-23.49,6.35-31.77,6.35-31.77-0.58-4.3,4.69-8.79,4.69-8.79l10.53-8.34C330.29,140.28,326.63,143,326.63,143Zm-92.56,11.55C241.2,152.41,241,148,241,148c-7.06,5-13.09,3.15-13.09,3.15-3.85-2.25-6-2.12-6-2.12-5.2-.45-8.73-5.91-8.73-5.91-3.15-3.72-1.8-10.4-1.8-10.4a1.89,1.89,0,0,0-1.86.45c-6.87,7.38-.51,14.7-0.51,14.7C218.6,159,234.07,154.53,234.07,154.53Z" transform="translate(-164.12 -65.39)"/><path class="cls-2" d="M463.64,221.4c-8.09,1.6-10.66-1.93-10.66-1.93a7.14,7.14,0,0,0,7-4c5.78-14.64-4.69-16.82-4.69-16.82,1.09,10.85-4.75,13.16-4.75,13.16a4.53,4.53,0,0,1-6.16-2.31c4.75-10.59-3.08-19.58-3.08-19.58-3.34,6-5.07,19.9-5.07,19.9-6.1.32-7.32-3.85-7.32-3.85-2.38-4.56,2.5-9.18,2.5-9.18C416.59,198,422,210.23,422,210.23c2.5,4.56,1.16,8.09,1.16,8.09-1.67,3.21-4.36,2-4.36,2,1-.39.32-1.93,0.32-1.93l-3.34-4.17c-10.33-1-12,4.56-12,4.56,11,2.18,6,9.12,6,9.12-1.93.77-8.54,0.39-8.54,0.39-6.68-3-21.31-4.81-21.31-4.81,2.25-.9,1.93-9.05,1.93-9.05,1.41-2.38,22.92-5.91,22.92-5.91,16.63-3.53,11.49-19.32,11.49-19.32-1.6-5.52,1.16-5.84,1.16-5.84l14.51-.58c-2.18-10.14-16-8.54-16-8.54-2.5-1.86-1-7.7-1-7.7,3.92-13.16,12.2-9.76,12.2-9.76a17.93,17.93,0,0,0,2.63,6.8l3.21,0.71C445.6,174,448.94,163,448.94,163c-9.44-.58-12.84-7.06-12.84-7.06,3.27,0.26,10.53-5.52,10.53-5.52l-0.26-11.3c-3.27-.51-5.07,2.89-5.07,2.89-4.94,8.09-7.77,5.39-7.77,5.39,8.73-16.69-3.47-21.76-3.47-21.76L429.75,134c-0.9,6.48-3.66,6.61-3.66,6.61l-1.28-2.25c-3.15-5.91-7.45-1.28-7.45-1.28-2.31,3.72-3.27,2.76-3.27,2.76-0.51-.39-0.19-4.24-0.19-4.24-2.5.39-7.45,6.93-7.45,6.93-11,1.22-10.66,6.93-10.66,6.93,5.78-.9,6.1,1,6.1,1-6,5.84-6,25.36-6,25.36l-8.86-.13a19.87,19.87,0,0,0-4.17,6.23l-0.39,2.5,4.69,0.06,7.7-3.4c3,2.5,2.89,8.6,2.89,8.6l-7.83.26-7.06,4.3c-4.11-.19-7.57-6.42-7.57-6.42,0.9-4.17.13-12.77,0.13-12.77-2.57-5.46-2.05-7.06-2.05-7.06,8.73-2.12,9-9.18,9-9.18-4.56-1.22-14.51,3.66-14.51,3.66-7.64,2.5-8.15-3-8.15-3,0-18.87,7.77-17.84,7.77-17.84,1.86,5,11.49,5.07,11.49,5.07,8.22,0.13,9.44-5.33,9.44-5.33-1-3.4-11.17-5.39-11.17-5.39,8.41-10.4.39-17.33,0.39-17.33-3.72.58-5.07,7.64-5.07,7.64-1.8,8.41-5,6-5,6,1.73-1.6.9-10.27,0.9-10.27,0.06-3.59-3.66-5.91-3.66-5.91-3.15-1.41-4,2.63-4,2.63,0,1.35.64,10.4,0.64,10.4,0.06,3.27-1.54,2.05-1.54,2.05l-0.63-3.72a1.9,1.9,0,0,0-2.58.51c-0.58,3.92-2.31,3.79-2.31,3.79l-6-.32c-6,1.22-.39,4.36-0.39,4.36,4,1.67,3.21,2.18,3.21,2.18-3.92.83-4.49,6.93-4.49,6.93-1.73,6.93-3.72,10.08-3.72,10.08-2.89,3.21-4.62.26-4.62,0.26-2.25-6.68-4.36-6.16-4.36-6.16-1.22.19-2.63,5.65-2.63,5.65-2.63,13.29.9,14.44,0.9,14.44,1.41,0.9,3.66-.77,3.66-0.77,3.08-2.05,4.24-1.22,4.24-1.22-1.6,2.25,1,4.81,1,4.81a23.76,23.76,0,0,1,6.23,7.64c-8.34-.19-9.95,9.05-9.95,9.05,8.09,2.63,12.45-4.17,12.45-4.17,2.7-3.4,4.43-2.5,4.43-2.5-0.83.45-1.48,3.92-1.48,3.92,0.26,9.31-3.79,12.71-3.79,12.71-7.45,7.51-17.65,5.71-17.65,5.71-10.4.51-10.91,15.28-10.91,15.28-1,11,5,31.32,5,31.32C331.6,274.42,319,282.7,319,282.7c0.58,4.3-4.69,8.79-4.69,8.79l-10.53,8.34c3.21,1.28,6.87-1.41,6.87-1.41,2.7-1,.9,2.63.9,2.63-8.54,13.29-8.47,17-8.47,17,2.7-.06,14.31-9.12,14.31-9.12a10.59,10.59,0,0,1,2.89-1l-0.32,1.54c-0.32,2.5.95,2.82,0.95,2.82,1.91-2.05,9.26-17.07,9.26-17.07,7.51-14.76,4.81-32.61,4.81-32.61-1-9.82-6.23-21.89-6.23-21.89-5.26-11.55-2.63-18.49-2.63-18.49,2-10.08,13.93-9.56,13.93-9.56,11.1,0.06,17.91,14.51,17.91,14.51,9.63,23.43,6.68,27.6,6.68,27.6-5.3,4-3.85,8.76-3.85,8.76a20,20,0,0,1,2.12,12.61C358.24,274.61,358,266,358,266c0.19-2-3.37-5.68-3.37-5.68-4,6.93,2.12,22.92,2.12,22.92-2.79.39-6.74-3.85-6.74-3.85-0.77,6.55,9.82,17.52,9.82,17.52-6.26,1.06-9.92-6.84-9.92-6.84-2.79,10.3,7.13,16.75,7.13,16.75a27.81,27.81,0,0,1,6.93,5.39c-2.41,11.65,4.62,13.38,4.62,13.38v-1.93c0.19-6.07,11-4.33,11-4.33,5.49,0.19,7.41-1.73,7.41-1.73a13.38,13.38,0,0,1,3.76-2.79c3.85-.1,12.23-2.89,12.23-2.89,4-1.25,10.78.48,10.78,0.48l1.44-9.72c0.77-6.74-2.21-10.3-2.21-10.3-0.39,1.25-4.11,5.94-4.11,5.94a18.91,18.91,0,0,1-14.57-2.25l-0.19-3.4c0.06-8.34,9.12-9.95,9.12-9.95,6.42-1.73,9.5,1.8,9.5,1.8h0.83l0.06-.71c-0.83-1.16-3-10.08-3-10.08a12.85,12.85,0,0,0-6.48.71c-1.48,1.28-6.87,3.85-6.87,3.85-1.22-4.3,1.67-8.6,1.67-8.6,4-8.15,17.33-5.71,17.33-5.71,17.46,1.22,18,14.89,18,14.89-1,7.83,1.09,11.49,1.09,11.49,4.62,7.7,10.59,6.8,10.59,6.8l-3.92-10.27c9.37,6,13.87,2.12,13.87,2.12-0.51-1.8-3.79-4.94-3.79-4.94-7.45-4.94-5.58-6.8-5.58-6.8,10.33,0.58,10-4.24,10-4.24-0.58-1.16.13-6.93,0.13-6.93a7.57,7.57,0,0,0-2.89,1.16,9.77,9.77,0,0,1-10.4.77c-6.48-5.91-1.35-7.06-1.35-7.06,6.68-1.54,6.55-4.49,6.55-4.49-3.53-1.6-13.42-.83-13.42-0.83L435,252.85a3.56,3.56,0,0,1-.26-3.79c6.29-3.85,5.39-7.83,5.39-7.83-5.71-.77-12.13,3.92-12.13,3.92-1-1.16-4.81-1.6-4.81-1.6-4.3-.32-4.11-1.28-4.11-1.28,5.07-.19,7.83-4.94,7.83-4.94,1.73-3.53,8.28-11.94,8.28-11.94,7.19-7,19.32,1.86,19.32,1.86,4.75,2.38,7.57.83,7.57,0.83C465.12,226.47,463.64,221.4,463.64,221.4Zm-60.47,65.47c-7.13,2.12-6.93,6.55-6.93,6.55,7.06-5,13.09-3.15,13.09-3.15,3.85,2.25,6,2.12,6,2.12,5.2,0.45,8.73,5.91,8.73,5.91,3.15,3.72,1.8,10.4,1.8,10.4a1.89,1.89,0,0,0,1.86-.45c6.87-7.38.51-14.7,0.51-14.7C418.64,282.44,403.17,286.87,403.17,286.87Z" transform="translate(-164.12 -65.39)"/><path class="cls-2" d="M315.62,215.88A11.38,11.38,0,0,0,323,210.1l-1.14,14.84s-5.12,1.83-9.37,8.28l-0.37-3.89Z" transform="translate(-164.12 -65.39)"/></svg>